<?xml version="1.0" encoding="UTF-8" standalone="no"?>
<!-- Uploaded to: SVG Repo, www.svgrepo.com, Generator: SVG Repo Mixer Tools -->

<svg
   width="800px"
   height="800px"
   viewBox="0 0 16 16"
   fill="none"
   version="1.1"
   id="svg2"
   sodipodi:docname="power.svg"
   inkscape:version="1.4.2 (ebf0e940d0, 2025-05-08)"
   xmlns:inkscape="http://www.inkscape.org/namespaces/inkscape"
   xmlns:sodipodi="http://sodipodi.sourceforge.net/DTD/sodipodi-0.dtd"
   xmlns="http://www.w3.org/2000/svg"
   xmlns:svg="http://www.w3.org/2000/svg">
  <defs
     id="defs2" />
  <sodipodi:namedview
     id="namedview2"
     pagecolor="#505050"
     bordercolor="#eeeeee"
     borderopacity="1"
     inkscape:showpageshadow="0"
     inkscape:pageopacity="0"
     inkscape:pagecheckerboard="0"
     inkscape:deskcolor="#505050"
     inkscape:zoom="1.065"
     inkscape:cx="399.53052"
     inkscape:cy="400"
     inkscape:window-width="1920"
     inkscape:window-height="1055"
     inkscape:window-x="0"
     inkscape:window-y="0"
     inkscape:window-maximized="1"
     inkscape:current-layer="svg2" />
  <path
     d="M6.49999 0V8H9.49999V0H6.49999Z"
     fill="#000000"
     id="path1" />
  <path
     d="M4.46447 11.5355C2.51184 9.58291 2.51184 6.41709 4.46447 4.46447L2.34315 2.34315C-0.781049 5.46734 -0.781049 10.5327 2.34315 13.6569C5.46734 16.781 10.5327 16.781 13.6569 13.6569C16.781 10.5327 16.781 5.46734 13.6569 2.34315L11.5355 4.46447C13.4882 6.41709 13.4882 9.58291 11.5355 11.5355C9.58291 13.4882 6.41709 13.4882 4.46447 11.5355Z"
     fill="#000000"
     id="path2" />
  <path
     style="fill:#ffffff;stroke-width:0.938967;fill-opacity:1"
     d="M 382.15962,799.00623 C 338.01608,797.17413 293.09762,787.51918 251.64319,770.9525 138.47776,725.72753 50.659085,629.22211 16.877227,512.96424 9.714062,488.31271 5.9868771,469.77743 2.6582985,442.25352 0.61531099,425.36012 0.33615493,378.03689 2.1819538,361.50235 12.447744,269.5421 47.293014,192.98831 109.36002,126.03603 l 7.56958,-8.16538 52.72278,52.72279 52.72279,52.72279 -7.29648,7.82545 c -28.73584,30.81913 -50.48911,72.66797 -59.57709,114.61414 -5.53678,25.55535 -7.22253,56.90936 -4.38046,81.47423 6.53652,56.49735 29.56921,105.86706 67.984,145.72118 21.19624,21.99042 43.76814,38.56846 70.01736,51.42458 17.77375,8.70509 29.04499,12.97753 45.93914,17.41357 43.57515,11.44189 86.30157,11.44189 129.87672,0 16.89753,-4.43693 28.16582,-8.70868 45.95411,-17.42098 C 612.42905,574.63811 667.76965,461.88286 645.43805,350.23474 636.6206,306.15141 614.82889,263.27367 584.91206,231.14277 l -7.28522,-7.82438 52.49799,-52.50426 c 28.87389,-28.87735 52.71746,-52.50427 52.98571,-52.50427 0.86169,0 21.68795,23.23453 28.71387,32.03425 42.43617,53.14976 70.93025,116.5872 81.98206,182.51974 4.26917,25.46891 5.19113,37.39233 5.19113,67.13615 0,29.67582 -0.93657,41.83685 -5.14358,66.78836 -8.29951,49.22373 -26.0557,96.93162 -52.12025,140.03833 -49.01911,81.06999 -126.86346,143.07773 -216.7741,172.67373 -32.36624,10.65404 -70.76743,17.90012 -101.26256,19.10763 -6.83623,0.27069 -15.38725,0.62008 -19.00227,0.77642 -3.61503,0.15633 -13.75587,-0.0139 -22.53522,-0.37824 z"
     id="path3"
     transform="scale(0.02)" />
  <path
     style="fill:#ffffff;fill-opacity:1;stroke-width:0.938967"
     d="M 325.35211,200 V 0 H 400 474.64789 V 200 400 H 400 325.35211 Z"
     id="path4"
     transform="scale(0.02)" />
</svg>
