<?xml version="1.0" encoding="UTF-8" standalone="no"?>
<!-- Uploaded to: SVG Repo, www.svgrepo.com, Generator: SVG Repo Mixer Tools -->

<svg
   width="800px"
   height="800px"
   viewBox="0 0 24 24"
   fill="none"
   version="1.1"
   id="svg1"
   sodipodi:docname="power-off.svg"
   inkscape:version="1.4.2 (ebf0e940d0, 2025-05-08)"
   xmlns:inkscape="http://www.inkscape.org/namespaces/inkscape"
   xmlns:sodipodi="http://sodipodi.sourceforge.net/DTD/sodipodi-0.dtd"
   xmlns="http://www.w3.org/2000/svg"
   xmlns:svg="http://www.w3.org/2000/svg">
  <defs
     id="defs1" />
  <sodipodi:namedview
     id="namedview1"
     pagecolor="#505050"
     bordercolor="#eeeeee"
     borderopacity="1"
     inkscape:showpageshadow="0"
     inkscape:pageopacity="0"
     inkscape:pagecheckerboard="0"
     inkscape:deskcolor="#505050"
     inkscape:zoom="1.065"
     inkscape:cx="399.53052"
     inkscape:cy="400"
     inkscape:window-width="1920"
     inkscape:window-height="1055"
     inkscape:window-x="0"
     inkscape:window-y="0"
     inkscape:window-maximized="1"
     inkscape:current-layer="svg1" />
  <path
     d="M12 3V12M18.3611 5.64001C19.6195 6.8988 20.4764 8.50246 20.8234 10.2482C21.1704 11.994 20.992 13.8034 20.3107 15.4478C19.6295 17.0921 18.4759 18.4976 16.9959 19.4864C15.5159 20.4752 13.776 21.0029 11.9961 21.0029C10.2162 21.0029 8.47625 20.4752 6.99627 19.4864C5.51629 18.4976 4.36274 17.0921 3.68146 15.4478C3.00019 13.8034 2.82179 11.994 3.16882 10.2482C3.51584 8.50246 4.37272 6.8988 5.6311 5.64001"
     stroke="#000000"
     stroke-width="2"
     stroke-linecap="round"
     stroke-linejoin="round"
     id="path1" />
  <path
     style="fill:#ffffff;stroke-width:0.938967;fill-opacity:1"
     d="M 387.32394,732.70563 C 316.24255,729.60928 251.11285,705.60049 193.89671,661.40248 180.48518,651.04241 150.94334,621.76638 139.99043,607.98122 101.59495,559.65727 77.515115,502.3971 69.425507,440.18272 67.36418,424.32977 66.640802,391.35356 67.998211,375.11737 74.119958,301.89415 101.44162,236.59863 148.93414,181.69014 c 18.4339,-21.31235 25.72916,-26.23818 38.85929,-26.23818 6.13756,0 8.48657,0.45214 12.84051,2.47158 7.08965,3.28832 12.96165,8.86601 16.32787,15.50952 2.47415,4.88294 2.7565,6.35388 2.7565,14.36037 0,12.14535 -1.93827,16.02906 -14.99577,30.04695 -18.78033,20.16166 -33.07706,41.11155 -45.17458,66.19718 -17.08576,35.42935 -25.28117,69.43058 -26.36649,109.38967 -3.6152,133.1047 90.82249,247.63552 222.5931,269.95332 55.72163,9.4375 115.19605,0.32835 165.28401,-25.31502 26.47111,-13.55232 45.47588,-27.48147 67.23301,-49.27704 21.07323,-21.11046 35.21085,-40.04372 47.72561,-63.91471 53.4213,-101.89711 36.43784,-225.25006 -42.51666,-308.80379 -9.10044,-9.63056 -11.25676,-12.94929 -13.22176,-20.34928 -3.94804,-14.86785 4.0181,-30.84292 18.78225,-37.66539 4.64901,-2.14829 6.95032,-2.60799 13.16529,-2.62981 13.63188,-0.0479 20.64918,5.0022 41.97483,30.2076 84.2863,99.62036 102.28951,240.37333 45.76436,357.79551 -53.3655,110.85853 -160.14574,182.12977 -283.0641,188.9332 -9.29578,0.51451 -18.38028,0.86217 -20.18779,0.77257 -1.80752,-0.0896 -6.03287,-0.28253 -9.38968,-0.42876 z"
     id="path2"
     transform="scale(0.03)" />
  <path
     style="fill:#ffffff;fill-opacity:1;stroke-width:0.938967"
     d="m 392.3781,432.03249 c -9.72485,-2.5198 -19.19278,-10.94922 -23.06298,-20.53328 l -2.17897,-5.39592 V 250.23474 c 0,-150.992763 0.0559,-156.015404 1.78823,-160.563378 5.40167,-14.18161 16.74859,-22.225399 31.28075,-22.174817 10.68481,0.03719 19.92887,4.674282 26.10979,13.097441 7.09569,9.66976 6.54893,-4.493224 6.54893,169.640754 v 155.86855 l -2.17897,5.39592 c -2.89367,7.16581 -10.11806,14.97095 -16.76954,18.1176 -5.6263,2.66167 -16.06792,3.83282 -21.53724,2.41568 z"
     id="path3"
     transform="scale(0.03)" />
</svg>
