<svg width="17.29" height="9.968" viewBox="0 0 17.29 9.968" xmlns="http://www.w3.org/2000/svg"><g id="svgGroup" stroke-linecap="round" fill-rule="nonzero" font-size="9pt" stroke="#000" stroke-width="0.05mm" fill="#000000" style="stroke:#000;stroke-width:0.05mm;fill:#000000"><path d="M 9.072 9.45 L 7.854 9.94 L 6.762 7.14 L 2.226 7.14 L 1.134 9.912 L 0 9.45 L 3.836 0 L 5.292 0 L 9.072 9.45 Z M 4.494 1.316 L 2.646 6.02 L 6.328 6.02 L 4.494 1.316 Z M 15.316 3.108 L 15.316 2.52 L 16.464 2.52 L 16.464 8.036 A 1.701 1.701 0 0 0 16.478 8.265 Q 16.514 8.528 16.641 8.662 A 0.415 0.415 0 0 0 16.723 8.729 Q 16.982 8.89 17.29 8.89 L 17.024 9.87 Q 15.713 9.87 15.414 8.831 A 1.903 1.903 0 0 1 15.4 8.778 A 2.983 2.983 0 0 1 14.965 9.258 A 3.99 3.99 0 0 1 14.525 9.597 A 2.09 2.09 0 0 1 13.832 9.891 Q 13.506 9.968 13.118 9.968 Q 12.208 9.968 11.466 9.506 A 3.213 3.213 0 0 1 10.428 8.452 A 3.909 3.909 0 0 1 10.283 8.197 Q 9.842 7.35 9.842 6.202 A 4.64 4.64 0 0 1 9.982 5.044 A 3.916 3.916 0 0 1 10.283 4.242 Q 10.724 3.374 11.501 2.863 Q 12.278 2.352 13.286 2.352 A 3.162 3.162 0 0 1 13.957 2.421 A 2.618 2.618 0 0 1 14.427 2.569 A 3.64 3.64 0 0 1 15.027 2.89 A 3.094 3.094 0 0 1 15.316 3.108 Z M 15.204 7.938 L 15.204 4.032 Q 14.826 3.766 14.371 3.605 Q 13.916 3.444 13.412 3.444 A 2.229 2.229 0 0 0 12.716 3.55 A 1.963 1.963 0 0 0 12.229 3.787 A 2.282 2.282 0 0 0 11.526 4.546 A 2.795 2.795 0 0 0 11.424 4.739 A 2.893 2.893 0 0 0 11.179 5.534 A 3.875 3.875 0 0 0 11.13 6.16 Q 11.13 6.944 11.424 7.553 Q 11.718 8.162 12.236 8.505 Q 12.754 8.848 13.398 8.848 Q 13.93 8.848 14.406 8.589 A 2.723 2.723 0 0 0 15.067 8.092 A 2.53 2.53 0 0 0 15.204 7.938 Z"/></g></svg>