<svg width="10.313" height="11.648" viewBox="0 0 10.313 11.648" xmlns="http://www.w3.org/2000/svg"><g id="svgGroup" stroke-linecap="round" fill-rule="nonzero" font-size="9pt" stroke="#000" stroke-width="0.05mm" fill="#000000" style="stroke:#000;stroke-width:0.05mm;fill:#000000"><path d="M 1.875 9.879 L 2.15 8.848 A 3.111 3.111 0 0 1 1.672 8.735 A 2.735 2.735 0 0 1 1.518 8.681 A 2.154 2.154 0 0 1 1.154 8.495 A 2.694 2.694 0 0 1 0.938 8.344 Q 0.65 8.121 0.448 7.813 A 2.13 2.13 0 0 1 0.276 7.491 Q 0.205 7.327 0.148 7.134 A 3.788 3.788 0 0 1 0.123 7.043 A 3.588 3.588 0 0 1 0.024 6.489 A 4.655 4.655 0 0 1 0 6.012 A 4.94 4.94 0 0 1 0.041 5.361 A 3.752 3.752 0 0 1 0.164 4.778 Q 0.328 4.23 0.601 3.882 Q 0.873 3.533 1.242 3.302 Q 1.611 3.07 1.998 2.974 A 3.313 3.313 0 0 1 2.78 2.877 A 3.668 3.668 0 0 1 2.807 2.877 A 4.015 4.015 0 0 1 4.43 3.223 L 4.195 3.926 A 4.13 4.13 0 0 0 3.354 3.729 A 3.573 3.573 0 0 0 2.924 3.703 A 2.976 2.976 0 0 0 2.522 3.729 A 2.562 2.562 0 0 0 2.35 3.759 A 1.846 1.846 0 0 0 1.947 3.893 A 2.175 2.175 0 0 0 1.814 3.961 A 1.557 1.557 0 0 0 1.356 4.339 A 1.437 1.437 0 0 0 1.194 4.587 Q 1.129 4.711 1.077 4.86 A 2.602 2.602 0 0 0 1.049 4.945 Q 0.932 5.32 0.932 5.807 A 3.926 3.926 0 0 0 0.958 6.271 Q 0.988 6.528 1.055 6.747 Q 1.178 7.154 1.377 7.406 A 1.631 1.631 0 0 0 1.855 7.816 A 2.082 2.082 0 0 0 2.24 7.988 A 1.817 1.817 0 0 0 2.417 8.036 A 2.728 2.728 0 0 0 2.824 8.091 A 3.285 3.285 0 0 0 3.029 8.098 A 3.294 3.294 0 0 0 4.088 7.919 A 3.71 3.71 0 0 0 4.131 7.904 L 4.365 8.566 A 5.009 5.009 0 0 1 3.434 8.825 A 4.24 4.24 0 0 1 2.889 8.883 L 2.725 9.527 A 0.073 0.073 0 0 0 2.732 9.53 Q 2.748 9.536 2.796 9.55 A 4.998 4.998 0 0 0 2.818 9.557 L 2.941 9.592 Q 2.979 9.603 3.062 9.633 A 5.519 5.519 0 0 1 3.076 9.639 A 1.847 1.847 0 0 1 3.131 9.66 Q 3.183 9.681 3.218 9.7 A 0.513 0.513 0 0 1 3.223 9.703 Q 3.275 9.732 3.363 9.782 A 0.871 0.871 0 0 1 3.424 9.82 Q 3.456 9.841 3.481 9.863 A 0.454 0.454 0 0 1 3.504 9.885 Q 3.557 9.938 3.618 10.014 A 0.848 0.848 0 0 1 3.689 10.115 A 0.722 0.722 0 0 1 3.718 10.169 Q 3.755 10.247 3.779 10.35 A 1.257 1.257 0 0 1 3.779 10.354 A 1 1 0 0 1 3.802 10.533 A 1.14 1.14 0 0 1 3.803 10.576 A 1.007 1.007 0 0 1 3.56 11.232 A 1.355 1.355 0 0 1 3.48 11.32 A 1.071 1.071 0 0 1 2.907 11.621 A 1.558 1.558 0 0 1 2.607 11.648 A 1.699 1.699 0 0 1 2.463 11.642 A 2.174 2.174 0 0 1 2.341 11.628 A 2.762 2.762 0 0 1 2.173 11.598 A 3.477 3.477 0 0 1 2.033 11.566 A 17.568 17.568 0 0 1 1.955 11.547 Q 1.85 11.52 1.774 11.499 A 5.77 5.77 0 0 1 1.764 11.496 Q 1.658 11.467 1.482 11.414 Q 1.332 11.369 1.285 11.354 A 1.03 1.03 0 0 1 1.272 11.35 L 1.424 10.816 A 17.523 17.523 0 0 0 1.796 10.924 Q 2.29 11.06 2.531 11.086 A 0.945 0.945 0 0 0 2.631 11.092 A 0.896 0.896 0 0 0 2.803 11.076 Q 2.907 11.056 2.989 11.008 A 0.499 0.499 0 0 0 3.059 10.96 A 0.474 0.474 0 0 0 3.158 10.848 A 0.383 0.383 0 0 0 3.217 10.641 A 0.574 0.574 0 0 0 3.209 10.543 A 0.47 0.47 0 0 0 3.193 10.479 A 0.248 0.248 0 0 0 3.146 10.396 A 0.347 0.347 0 0 0 3.097 10.348 Q 3.023 10.289 2.962 10.248 Q 2.914 10.216 2.817 10.177 A 2.248 2.248 0 0 0 2.757 10.154 A 8.443 8.443 0 0 0 2.688 10.129 Q 2.604 10.099 2.54 10.079 A 2.796 2.796 0 0 0 2.52 10.072 Q 2.426 10.043 2.212 9.981 A 15.599 15.599 0 0 1 2.111 9.952 Q 2.012 9.923 1.938 9.899 A 4.619 4.619 0 0 1 1.875 9.879 Z M 10.313 4.887 L 10.313 8.73 L 9.633 8.73 L 9.41 8.203 Q 8.701 8.848 7.781 8.848 Q 6.961 8.848 6.393 8.353 A 1.832 1.832 0 0 1 6.046 7.958 A 1.391 1.391 0 0 1 5.824 7.195 A 1.579 1.579 0 0 1 5.872 6.8 A 1.281 1.281 0 0 1 6.015 6.457 A 1.472 1.472 0 0 1 6.519 5.95 A 2.216 2.216 0 0 1 6.841 5.791 Q 6.996 5.728 7.177 5.678 A 3.974 3.974 0 0 1 7.301 5.646 A 6.243 6.243 0 0 1 8.253 5.49 Q 8.736 5.449 9.346 5.449 L 9.346 4.986 Q 9.346 4.834 9.337 4.712 A 2.465 2.465 0 0 0 9.331 4.641 Q 9.32 4.534 9.274 4.397 A 2.057 2.057 0 0 0 9.234 4.289 A 1.026 1.026 0 0 0 9.131 4.092 A 0.834 0.834 0 0 0 9.012 3.952 Q 8.911 3.858 8.738 3.781 A 1.877 1.877 0 0 0 8.59 3.724 A 1.671 1.671 0 0 0 8.303 3.654 Q 8.16 3.632 7.998 3.628 A 2.97 2.97 0 0 0 7.922 3.627 A 3.614 3.614 0 0 0 7.481 3.657 Q 7.02 3.714 6.415 3.88 A 11.957 11.957 0 0 0 6.375 3.891 L 6.193 3.188 A 5.48 5.48 0 0 1 7.664 2.853 A 5.025 5.025 0 0 1 8.074 2.836 Q 8.725 2.836 9.173 2.988 A 1.896 1.896 0 0 1 9.503 3.135 Q 9.72 3.258 9.864 3.431 Q 10.107 3.721 10.21 4.072 A 2.443 2.443 0 0 1 10.286 4.448 Q 10.309 4.628 10.312 4.829 A 4.086 4.086 0 0 1 10.313 4.887 Z M 9.346 7.5 L 9.346 6.17 L 8.988 6.17 A 14.167 14.167 0 0 0 8.764 6.172 Q 8.662 6.173 8.57 6.176 A 8.092 8.092 0 0 0 8.511 6.179 A 5.957 5.957 0 0 0 8.345 6.188 Q 8.198 6.198 8.024 6.217 A 2.857 2.857 0 0 0 7.804 6.248 Q 7.662 6.275 7.547 6.313 A 2.318 2.318 0 0 0 7.163 6.483 A 0.751 0.751 0 0 0 6.969 6.636 A 0.68 0.68 0 0 0 6.882 6.756 A 0.736 0.736 0 0 0 6.793 7.027 A 0.933 0.933 0 0 0 6.785 7.148 A 0.722 0.722 0 0 0 6.944 7.598 Q 7.027 7.706 7.154 7.805 A 1.36 1.36 0 0 0 7.889 8.085 A 1.743 1.743 0 0 0 8.039 8.092 A 1.71 1.71 0 0 0 9.285 7.563 A 2.294 2.294 0 0 0 9.346 7.5 Z M 6.639 1.729 L 8.291 0 L 9.791 1.676 L 9.246 2.191 L 8.221 1.043 L 7.154 2.186 L 6.639 1.729 Z"/></g></svg>